# xmcd
#
# Track frame offsets:
#	150
#	14299
#	31211
#	45929
#	59622
#	73677
#	89790
#	106531
#	119300
#	136852
#	154103
#	166472
#	185417
#	200158
#	214962
#	229734
#	244107
#	257056
#
# Disc length: 3682 seconds
# Revision: 0
# Processed by: cddbd v1.5.2PL0 Copyright (c) Steve Scherf et al.
# Submitted via: dBpowerAMP V12.0
#
DISCID=fc0e6012
DTITLE=Red Jenkins - Cheatin' Heart Motel
DYEAR=2012
DGENRE=Country
TTITLE0=Three Chord Country Song  duet with Tony Both
TTITLE1=The Cheatin' Heart Motel  duet with Johnny Bush
TTITLE2=A Texas Honky Tonk  duet with Georgette Jones
TTITLE3=Fallin' Down Ole Beerjoint  duet with Rick Sousley
TTITLE4=Let's Go Dancing  duet with Mona McCall
TTITLE5=Wish I Had A Nickel  duet with Landon Dodd
TTITLE6=Drink My Wife Away  duet with Miss Leslie
TTITLE7=One More Bottle From The End  duet with Norman Wade
TTITLE8=Happiness Is Never Found In Cans  duet with Billy Mata
TTITLE9=Dreams Of A Dreamer  duet with Darrell McCall
TTITLE10=World Of Make Believe  duet with Bill Green
TTITLE11=Play The Jukebox One More Time  duet with Jake Hooker
TTITLE12=Glasses Of Beer  duet with Amber Digby
TTITLE13=You Can't Get There From Here  duet with Justin Trevino
TTITLE14=Private Party  duet with Bobby Flores
TTITLE15=Stay Under Me ('Til I Get Over Her) duet with Miss Leslie
TTITLE16=Heaven Ain't A Honky Tonk  duet with Johnny Bush
TTITLE17=Psychedelic Cowboy  duet with Augie Meyers
EXTD=
EXTT0=
EXTT1=
EXTT2=
EXTT3=
EXTT4=
EXTT5=
EXTT6=
EXTT7=
EXTT8=
EXTT9=
EXTT10=
EXTT11=
EXTT12=
EXTT13=
EXTT14=
EXTT15=
EXTT16=
EXTT17=
PLAYORDER=
